<svg version="1.1" id="Layer_1" xmlns="http://www.w3.org/2000/svg" xmlns:xlink="http://www.w3.org/1999/xlink" x="0px" y="0px"
	 width="100%" viewBox="0 0 160 160" enable-background="new 0 0 160 160" xml:space="preserve">
<path fill="#FF6644" opacity="1.000000" stroke="none" 
	d="
M99.000000,161.000000 
	C87.312439,161.000000 75.624878,161.000000 63.809254,160.706772 
	C62.873581,159.944885 62.120800,159.268143 61.250156,159.038727 
	C47.778877,155.489166 35.967075,149.086899 25.833351,139.410309 
	C14.440418,128.531311 6.655573,115.675362 2.908820,100.358047 
	C2.768423,99.784073 1.658249,99.447311 0.999998,99.000000 
	C1.000000,87.312439 1.000000,75.624878 1.293233,63.809258 
	C2.055123,62.873592 2.731873,62.120823 2.961279,61.250175 
	C6.510825,47.778881 12.913125,35.967098 22.589695,25.833370 
	C33.468678,14.440427 46.324635,6.655567 61.641964,2.908826 
	C62.215935,2.768428 62.552696,1.658253 63.000000,1.000000 
	C74.687561,1.000000 86.375122,1.000000 98.190750,1.293235 
	C99.126419,2.055124 99.879196,2.731874 100.749840,2.961279 
	C114.221130,6.510830 126.032906,12.913140 136.166641,22.589693 
	C147.559586,33.468670 155.344421,46.324635 159.091156,61.641964 
	C159.231567,62.215935 160.341751,62.552696 161.000000,63.000000 
	C161.000000,74.687561 161.000000,86.375122 160.706757,98.190742 
	C159.944855,99.126411 159.268143,99.879196 159.038727,100.749847 
	C155.489151,114.221123 149.086884,126.032913 139.410294,136.166656 
	C128.531296,147.559586 115.675346,155.344437 100.358025,159.091171 
	C99.784050,159.231552 99.447296,160.341751 99.000000,161.000000 
M83.993073,115.033592 
	C79.654167,114.314644 75.309059,113.538010 69.900513,116.188805 
	C72.623642,117.263992 74.017441,117.814316 75.715485,118.484764 
	C73.879028,122.878761 72.161880,126.987297 70.165527,131.763870 
	C67.322090,126.671822 65.075447,122.648514 62.831490,118.630020 
	C64.322014,117.781845 65.700897,116.997200 67.079781,116.212555 
	C66.948006,115.857368 66.816231,115.502190 66.684456,115.147003 
	C62.101166,115.147003 57.517872,115.147003 52.934582,115.147003 
	C52.855648,115.561050 52.776711,115.975098 52.697777,116.389145 
	C53.992649,117.083862 55.287521,117.778580 56.889408,118.638016 
	C54.844597,122.857773 52.806919,127.062805 50.369102,132.093597 
	C47.556355,126.758453 45.354458,122.581955 43.211685,118.517601 
	C45.192307,117.610214 46.716930,116.911728 48.241558,116.213242 
	C48.100784,115.713135 47.960014,115.213036 47.819241,114.712929 
	C42.929539,114.472023 38.004948,113.563156 32.630070,116.267776 
	C39.956726,116.755516 39.526459,122.947769 41.685726,127.036682 
	C43.155449,129.819839 43.906754,132.998093 45.494061,135.696945 
	C46.319656,137.100662 48.232700,138.616623 49.706272,138.670670 
	C51.109383,138.722107 53.043144,137.243301 53.928135,135.900009 
	C56.038795,132.696396 57.668411,129.175858 60.192734,124.480484 
	C62.556862,129.468628 64.050560,133.095520 65.995972,136.461319 
	C66.656891,137.604782 68.449997,138.695358 69.738167,138.709915 
	C71.096306,138.725266 73.213593,137.757797 73.709503,136.644958 
	C76.112122,131.253464 78.081223,125.668755 80.896782,120.023338 
	C82.841141,119.599640 84.785500,119.175949 87.764938,118.526703 
	C86.388908,117.287453 85.515488,116.500847 83.993073,115.033592 
M109.079590,88.602112 
	C91.941452,103.732872 67.295578,103.878273 51.373489,88.942558 
	C34.820168,73.414711 32.744549,48.525452 46.545105,31.043970 
	C60.526100,13.333909 84.863129,9.593509 104.324547,22.475731 
	C108.091896,24.969479 110.730453,23.150826 114.040390,22.105719 
	C102.559494,8.040566 72.734161,0.403208 49.724369,18.090551 
	C27.920477,34.850937 24.025515,65.952560 41.009853,88.061119 
	C57.409237,109.408241 88.421867,113.336403 110.227280,96.801468 
	C132.748260,79.723907 133.775528,49.499748 122.418198,33.077213 
	C121.723190,37.692329 120.096054,41.378586 120.884911,44.442875 
	C125.204575,61.222511 121.722382,75.717247 109.079590,88.602112 
M115.166977,69.812019 
	C117.059227,68.667061 117.060844,67.777824 114.910088,66.902046 
	C111.677528,65.585777 108.505119,64.122528 105.297005,62.745350 
	C99.492844,60.253738 93.459816,55.427711 87.933861,55.947891 
	C82.206421,56.487041 76.928581,62.154892 71.524422,65.687180 
	C64.645744,70.183250 57.837715,74.787415 50.213078,79.868912 
	C60.291748,84.238373 69.364479,88.298134 78.574387,92.018257 
	C79.848686,92.532974 82.070572,91.780716 83.397469,90.915337 
	C93.850784,84.097847 104.193138,77.110199 115.166977,69.812019 
M48.089741,62.476616 
	C48.311546,67.239670 48.533352,72.002731 48.799122,77.709908 
	C59.409046,70.640831 68.961800,63.724030 79.074028,57.755062 
	C84.732124,54.415241 86.728905,50.587662 86.030510,44.177868 
	C85.147171,36.070713 85.172798,27.864519 84.771286,18.919302 
	C75.147354,25.325823 66.618134,31.743452 57.390564,36.915016 
	C49.844242,41.144341 45.947773,46.213024 47.882385,55.017166 
	C48.337364,57.087704 48.037209,59.324169 48.089741,62.476616 
M103.693115,131.635223 
	C106.886726,132.161957 110.783455,130.123688 112.941566,133.753983 
	C111.854836,135.297043 110.952721,136.577988 110.050606,137.858917 
	C111.569275,138.208664 113.075302,138.769470 114.609413,138.861313 
	C117.263901,139.020233 119.943764,139.000595 122.595726,138.812515 
	C123.431877,138.753204 124.212845,137.915894 125.019325,137.434494 
	C122.904984,135.801331 120.922333,134.849319 119.781876,133.283813 
	C115.857666,127.897018 112.254494,122.277443 108.476234,116.782852 
	C106.116585,113.351303 103.436996,113.374695 101.159927,116.940041 
	C98.383530,121.287247 95.973236,125.880539 93.016647,130.095245 
	C91.528580,132.216492 89.160156,133.712280 87.239830,135.543335 
	C86.713333,136.045364 85.884590,137.078278 86.026535,137.278870 
	C86.505020,137.955093 87.339470,138.776230 88.070778,138.809158 
	C91.539307,138.965363 95.018768,138.878952 99.403236,138.878952 
	C98.570778,136.613251 97.979050,135.002762 97.172935,132.808777 
	C99.057755,132.414993 100.920097,132.025909 103.693115,131.635223 
M103.670258,34.836773 
	C110.073090,37.460411 108.374283,44.924984 112.451454,49.630520 
	C116.982040,40.559944 121.349449,31.816050 126.238091,22.028608 
	C115.544106,24.887749 106.080696,27.417881 95.530563,30.238558 
	C98.753555,32.041870 100.901871,33.243881 103.670258,34.836773 
z"/>
<path fill="#000000" opacity="1.000000" stroke="none" 
	d="
M62.531342,1.000000 
	C62.552696,1.658253 62.215935,2.768428 61.641964,2.908826 
	C46.324635,6.655567 33.468678,14.440427 22.589695,25.833370 
	C12.913125,35.967098 6.510825,47.778881 2.961279,61.250175 
	C2.731873,62.120823 2.055123,62.873592 1.293233,63.340599 
	C1.000000,42.406513 1.000000,21.813030 1.000000,1.000000 
	C21.353703,1.000000 41.708191,1.000000 62.531342,1.000000 
z"/>
<path fill="#000000" opacity="1.000000" stroke="none" 
	d="
M99.468658,161.000000 
	C99.447296,160.341751 99.784050,159.231552 100.358025,159.091171 
	C115.675346,155.344437 128.531296,147.559586 139.410294,136.166656 
	C149.086884,126.032913 155.489151,114.221123 159.038727,100.749847 
	C159.268143,99.879196 159.944855,99.126411 160.706757,98.659401 
	C161.000000,119.593483 161.000000,140.186966 161.000000,161.000000 
	C140.646301,161.000000 120.291809,161.000000 99.468658,161.000000 
z"/>
<path fill="#000000" opacity="1.000000" stroke="none" 
	d="
M0.999998,99.468658 
	C1.658249,99.447311 2.768423,99.784073 2.908820,100.358047 
	C6.655573,115.675362 14.440418,128.531311 25.833351,139.410309 
	C35.967075,149.086899 47.778877,155.489166 61.250156,159.038727 
	C62.120800,159.268143 62.873581,159.944885 63.340595,160.706772 
	C42.406513,161.000000 21.813025,161.000000 1.000000,161.000000 
	C1.000000,140.646301 1.000000,120.291809 0.999998,99.468658 
z"/>
<path fill="#000000" opacity="1.000000" stroke="none" 
	d="
M161.000000,62.531342 
	C160.341751,62.552696 159.231567,62.215935 159.091156,61.641964 
	C155.344421,46.324635 147.559586,33.468670 136.166641,22.589693 
	C126.032906,12.913140 114.221130,6.510830 100.749840,2.961279 
	C99.879196,2.731874 99.126419,2.055124 98.659409,1.293235 
	C119.593483,1.000000 140.186966,1.000000 161.000000,1.000000 
	C161.000000,21.353703 161.000000,41.708191 161.000000,62.531342 
z"/>
<path fill="#EFEBEC" opacity="1.000000" stroke="none" 
	d="
M109.347763,88.363831 
	C121.722382,75.717247 125.204575,61.222511 120.884911,44.442875 
	C120.096054,41.378586 121.723190,37.692329 122.418198,33.077213 
	C133.775528,49.499748 132.748260,79.723907 110.227280,96.801468 
	C88.421867,113.336403 57.409237,109.408241 41.009853,88.061119 
	C24.025515,65.952560 27.920477,34.850937 49.724369,18.090551 
	C72.734161,0.403208 102.559494,8.040566 114.040390,22.105719 
	C110.730453,23.150826 108.091896,24.969479 104.324547,22.475731 
	C84.863129,9.593509 60.526100,13.333909 46.545105,31.043970 
	C32.744549,48.525452 34.820168,73.414711 51.373489,88.942558 
	C67.295578,103.878273 91.941452,103.732872 109.347763,88.363831 
z"/>
<path fill="#EEEFF0" opacity="1.000000" stroke="none" 
	d="
M114.868317,69.993484 
	C104.193138,77.110199 93.850784,84.097847 83.397469,90.915337 
	C82.070572,91.780716 79.848686,92.532974 78.574387,92.018257 
	C69.364479,88.298134 60.291748,84.238373 50.213078,79.868912 
	C57.837715,74.787415 64.645744,70.183250 71.524422,65.687180 
	C76.928581,62.154892 82.206421,56.487041 87.933861,55.947891 
	C93.459816,55.427711 99.492844,60.253738 105.297005,62.745350 
	C108.505119,64.122528 111.677528,65.585777 114.910088,66.902046 
	C117.060844,67.777824 117.059227,68.667061 114.868317,69.993484 
z"/>
<path fill="#F0E3E1" opacity="1.000000" stroke="none" 
	d="
M80.203949,120.152519 
	C78.081223,125.668755 76.112122,131.253464 73.709503,136.644958 
	C73.213593,137.757797 71.096306,138.725266 69.738167,138.709915 
	C68.449997,138.695358 66.656891,137.604782 65.995972,136.461319 
	C64.050560,133.095520 62.556862,129.468628 60.192734,124.480484 
	C57.668411,129.175858 56.038795,132.696396 53.928135,135.900009 
	C53.043144,137.243301 51.109383,138.722107 49.706272,138.670670 
	C48.232700,138.616623 46.319656,137.100662 45.494061,135.696945 
	C43.906754,132.998093 43.155449,129.819839 41.685726,127.036682 
	C39.526459,122.947769 39.956726,116.755516 32.630070,116.267776 
	C38.004948,113.563156 42.929539,114.472023 47.819241,114.712929 
	C47.960014,115.213036 48.100784,115.713135 48.241558,116.213242 
	C46.716930,116.911728 45.192307,117.610214 43.211685,118.517601 
	C45.354458,122.581955 47.556355,126.758453 50.369102,132.093597 
	C52.806919,127.062805 54.844597,122.857773 56.889408,118.638016 
	C55.287521,117.778580 53.992649,117.083862 52.697777,116.389145 
	C52.776711,115.975098 52.855648,115.561050 52.934582,115.147003 
	C57.517872,115.147003 62.101166,115.147003 66.684456,115.147003 
	C66.816231,115.502190 66.948006,115.857368 67.079781,116.212555 
	C65.700897,116.997200 64.322014,117.781845 62.831490,118.630020 
	C65.075447,122.648514 67.322090,126.671822 70.165527,131.763870 
	C72.161880,126.987297 73.879028,122.878761 75.715485,118.484764 
	C74.017441,117.814316 72.623642,117.263992 69.900513,116.188805 
	C75.309059,113.538010 79.654167,114.314644 84.022995,115.649651 
	C82.769920,117.561310 81.486938,118.856918 80.203949,120.152519 
z"/>
<path fill="#F0E0DE" opacity="1.000000" stroke="none" 
	d="
M48.087093,61.980461 
	C48.037209,59.324169 48.337364,57.087704 47.882385,55.017166 
	C45.947773,46.213024 49.844242,41.144341 57.390564,36.915016 
	C66.618134,31.743452 75.147354,25.325823 84.771286,18.919302 
	C85.172798,27.864519 85.147171,36.070713 86.030510,44.177868 
	C86.728905,50.587662 84.732124,54.415241 79.074028,57.755062 
	C68.961800,63.724030 59.409046,70.640831 48.799122,77.709908 
	C48.533352,72.002731 48.311546,67.239670 48.087093,61.980461 
M82.022827,26.346113 
	C80.863647,26.417471 79.450378,26.084387 78.587090,26.626738 
	C73.510437,29.816072 68.881653,33.900856 63.502716,36.387871 
	C52.845592,41.315319 48.541218,48.831715 50.964283,60.414780 
	C51.706974,63.965103 51.431683,67.728378 51.633385,71.602074 
	C52.851673,71.233093 53.211735,71.206459 53.474289,71.032593 
	C62.224121,65.238014 70.901138,59.329876 79.745720,53.684166 
	C82.356888,52.017387 83.199135,50.106003 82.998375,47.136559 
	C82.549370,40.495113 82.369843,33.835457 82.022827,26.346113 
z"/>
<path fill="#F0E0DE" opacity="1.000000" stroke="none" 
	d="
M103.237778,131.636017 
	C100.920097,132.025909 99.057755,132.414993 97.172935,132.808777 
	C97.979050,135.002762 98.570778,136.613251 99.403236,138.878952 
	C95.018768,138.878952 91.539307,138.965363 88.070778,138.809158 
	C87.339470,138.776230 86.505020,137.955093 86.026535,137.278870 
	C85.884590,137.078278 86.713333,136.045364 87.239830,135.543335 
	C89.160156,133.712280 91.528580,132.216492 93.016647,130.095245 
	C95.973236,125.880539 98.383530,121.287247 101.159927,116.940041 
	C103.436996,113.374695 106.116585,113.351303 108.476234,116.782852 
	C112.254494,122.277443 115.857666,127.897018 119.781876,133.283813 
	C120.922333,134.849319 122.904984,135.801331 125.019325,137.434494 
	C124.212845,137.915894 123.431877,138.753204 122.595726,138.812515 
	C119.943764,139.000595 117.263901,139.020233 114.609413,138.861313 
	C113.075302,138.769470 111.569275,138.208664 110.050598,137.858917 
	C110.952721,136.577988 111.854836,135.297043 112.941566,133.753983 
	C110.783455,130.123688 106.886726,132.161957 103.237778,131.636017 
M103.647255,128.135101 
	C105.433838,128.135101 107.220428,128.135101 110.496490,128.135101 
	C108.262207,125.435936 106.817680,123.690842 105.373146,121.945747 
	C103.512352,123.654152 101.651550,125.362556 99.095596,127.709183 
	C101.227066,127.949303 102.026833,128.039398 103.647255,128.135101 
z"/>
<path fill="#EFEAEA" opacity="1.000000" stroke="none" 
	d="
M103.360214,34.641335 
	C100.901871,33.243881 98.753555,32.041870 95.530563,30.238558 
	C106.080696,27.417881 115.544106,24.887749 126.238091,22.028608 
	C121.349449,31.816050 116.982040,40.559944 112.451454,49.630520 
	C108.374283,44.924984 110.073090,37.460411 103.360214,34.641335 
z"/>
<path fill="#F7A391" opacity="1.000000" stroke="none" 
	d="
M80.550369,120.087929 
	C81.486938,118.856918 82.769920,117.561310 84.347488,115.989975 
	C85.515488,116.500847 86.388908,117.287453 87.764938,118.526703 
	C84.785500,119.175949 82.841141,119.599640 80.550369,120.087929 
z"/>
<path fill="#FF6846" opacity="1.000000" stroke="none" 
	d="
M82.051689,26.764664 
	C82.369843,33.835457 82.549370,40.495113 82.998375,47.136559 
	C83.199135,50.106003 82.356888,52.017387 79.745720,53.684166 
	C70.901138,59.329876 62.224121,65.238014 53.474289,71.032593 
	C53.211735,71.206459 52.851673,71.233093 51.633385,71.602074 
	C51.431683,67.728378 51.706974,63.965103 50.964283,60.414780 
	C48.541218,48.831715 52.845592,41.315319 63.502716,36.387871 
	C68.881653,33.900856 73.510437,29.816072 78.587090,26.626738 
	C79.450378,26.084387 80.863647,26.417471 82.051689,26.764664 
M66.009521,50.141029 
	C65.905327,47.765060 65.801140,45.389091 65.684067,42.719486 
	C54.718006,47.988335 53.940121,49.240093 55.761044,58.493008 
	C59.243778,56.346748 62.581703,54.289722 65.905899,52.988136 
	C66.095306,54.235428 66.284706,55.482719 66.485329,56.803913 
	C72.931656,54.054695 73.277191,53.477783 71.723511,48.503189 
	C69.817375,49.339500 67.905167,50.178474 66.009521,50.141029 
M78.877541,41.508244 
	C78.615028,40.468899 78.352516,39.429554 78.025101,38.133236 
	C74.406464,40.244953 70.548325,41.662971 73.053085,47.674438 
	C75.195610,45.660587 77.016586,43.948971 78.877541,41.508244 
z"/>
<path fill="#FD704F" opacity="1.000000" stroke="none" 
	d="
M103.236923,128.132294 
	C102.026833,128.039398 101.227066,127.949303 99.095596,127.709183 
	C101.651550,125.362556 103.512352,123.654152 105.373146,121.945747 
	C106.817680,123.690842 108.262207,125.435936 110.496490,128.135101 
	C107.220428,128.135101 105.433838,128.135101 103.236923,128.132294 
z"/>
<path fill="#EFEAEA" opacity="1.000000" stroke="none" 
	d="
M65.919632,52.232700 
	C62.581703,54.289722 59.243778,56.346748 55.761044,58.493008 
	C53.940121,49.240093 54.718006,47.988335 65.684067,42.719486 
	C65.801140,45.389091 65.905327,47.765060 65.973961,50.882515 
	C65.932144,51.826897 65.925888,52.029800 65.919632,52.232700 
z"/>
<path fill="#F0E1DE" opacity="1.000000" stroke="none" 
	d="
M65.912766,52.610420 
	C65.925888,52.029800 65.932144,51.826897 65.965683,51.320724 
	C67.905167,50.178474 69.817375,49.339500 71.723511,48.503189 
	C73.277191,53.477783 72.931656,54.054695 66.485329,56.803913 
	C66.284706,55.482719 66.095306,54.235428 65.912766,52.610420 
z"/>
<path fill="#F0E0DE" opacity="1.000000" stroke="none" 
	d="
M78.857552,41.872799 
	C77.016586,43.948971 75.195610,45.660587 73.053085,47.674438 
	C70.548325,41.662971 74.406464,40.244953 78.025101,38.133236 
	C78.352516,39.429554 78.615028,40.468899 78.857552,41.872799 
z"/>
</svg>