<svg xmlns="http://www.w3.org/2000/svg" xml:space="preserve" width="2000" height="301" viewBox="0 0 2000 301" data-version="1" data-id="lg_Ykxo8jBooLYJM25KUE"><g id="outer-wrapper" data-padding="20" transform="matrix(0.9988054154499602,0,0,0.9988054154499602,1.194584550039849,0.17978497478100053)"><g id="inner-wrapper" transform="matrix(0.9335548172757475,0,0,0.9335548172757475,10,10)"><path fill="#d94e28" d="M1060.4626334519573 -0.18000000000006722A150.68 150.68 0 1 0 1060.4626334519573 301.17999999999995A150.68 150.68 0 1 0 1060.4626334519573 -0.1800000000000388 "></path><rect width="148.005" height="192.1" x="558.5306334519576" y="-307.4600000000001" fill="none" rx="0" ry="0" transform="translate(426.62 360.59)"></rect><path fill="#efefef" d="M1087.6526334519574 203.89999999999995L1064.8726334519574 134.02999999999994Q1062.3226334519575 127.05999999999992 1060.7926334519575 120.42999999999992Q1059.9426334519574 123.65999999999994 1059.1826334519574 126.8899999999999Q1058.4126334519574 130.11999999999992 1057.2226334519573 134.0299999999999L1035.1226334519574 203.8999999999999H1020.1626334519574L988.2026334519575 88.80999999999986H1008.4326334519575L1023.3926334519574 146.43999999999986Q1027.3026334519575 161.39999999999984 1029.0026334519575 170.57999999999984Q1030.1926334519574 165.81999999999985 1031.8126334519575 160.03999999999982Q1033.4226334519574 154.25999999999985 1035.8026334519575 146.77999999999983L1053.8226334519575 88.80999999999986H1068.9526334519574L1086.9726334519573 146.7799999999999Q1089.3526334519574 154.42999999999986 1091.0526334519575 160.71999999999989T1093.7726334519575 171.7699999999999Q1094.4526334519574 167.0099999999999 1095.7326334519573 160.71999999999989Q1097.0026334519573 154.42999999999986 1099.0426334519575 146.7799999999999L1114.0026334519573 88.80999999999986H1134.5726334519575L1102.6126334519574 203.8999999999999Z " paint-order="stroke"></path></g><rect width="301" height="301" x="849.5" y="-5.684341886080802e-14" id="space-saver" fill="transparent" stroke="transparent"></rect></g></svg>